<svg
    xmlns="http://www.w3.org/2000/svg"
    viewBox="0 0 389 612"
    id="vector">
    <path
        id="path"
        d="M 198.28 0 C 221.576 0.483 244.602 5.106 266.28 13.65 C 285.448 21.285 303.324 31.829 319.28 44.91 C 355.412 74.806 379.567 116.762 387.28 163.02 C 390.624 183.146 390.529 203.695 387 223.79 C 382.73 247.376 376.45 270.554 368.23 293.07 Q 352.69 335.72 335.23 377.69 C 319.64 415.24 301.78 451.75 282.74 487.69 C 267.26 516.89 251 545.69 232.46 573.02 C 224 585.51 215.46 598.02 203.88 608.02 C 202.497 609.278 201.019 610.428 199.46 611.46 C 196.77 613.13 194.04 613.63 191.02 611.82 C 182.7 606.82 176.64 599.51 170.75 592.06 C 152.42 568.86 137.43 543.48 123.14 517.7 C 112.14 497.83 101.14 477.88 91.14 457.5 C 78.69 432.2 66.55 406.7 55.52 380.76 C 43.46 352.41 32.03 323.76 21.76 294.7 C 11.57 265.86 3.11 236.36 0.45 205.7 C -1.09 187.91 0.76 170.26 4.59 152.82 C 13.8 110.82 35.04 76.1 67.15 47.82 C 87.03 30.29 109.79 17.75 134.81 9.45 C 155.09 2.64 176.09 0.32 198.28 0 Z M 336.7 194.08 C 334.93 113.33 269.97 51.51 192.95 52.94 C 109.35 54.49 49.56 122.61 53.45 202.01 C 57.17 277.95 120.17 338.86 198.75 336.59 C 279.15 334.27 336.7 268.19 336.7 194.08 Z"
        fill="#f22626"/>
    <path
        id="path_1"
        d="M 336.7 194.08 C 336.7 268.19 279.13 334.27 198.7 336.59 C 120.12 338.86 57.12 277.96 53.4 202.01 C 49.51 122.6 109.3 54.49 192.9 52.94 C 270 51.51 334.96 113.34 336.7 194.08 Z"
        fill="#000000"/>
    <path
        id="path_2"
        d="M 183.75 290.06 L 124.46 119.26 L 143.25 119.26 L 194.25 258.83 L 242.32 119.26 L 261.11 119.26 L 205.96 290.06 Z M 147.64 119.26 L 146.42 119.26 L 194.24 248.83 L 239.38 119.26 L 238.16 119.26 L 194.24 244.68 Z M 151.79 119.26 L 150.57 119.26 L 194.25 235.16 L 235.49 119.26 L 234.27 119.26 L 194.27 231.01 Z"
        fill="#ffffff"/>
</svg>
